name Walk8.mot
datacolumns 19
datarows 15
range 3.35500000 3.42500000
endheader

                time	   L_ground_force_vx	   L_ground_force_vy	   L_ground_force_vz	   L_ground_force_px	   L_ground_force_py	   L_ground_force_pz	   R_ground_force_vx	   R_ground_force_vy	   R_ground_force_vz	   R_ground_force_px	   R_ground_force_py	   R_ground_force_pz	   L_ground_torque_x	   L_ground_torque_y	   L_ground_torque_z	   R_ground_torque_x	   R_ground_torque_y	   R_ground_torque_z	
          3.35500000	          0.00000000	          0.00000000	         -0.00000000	         -0.00000000	          0.00000000	         -0.00000000	          0.43195538	         11.71420259	          0.87561067	          0.06561324	          0.00000000	          0.04992570	          0.00000000	          0.00000000	          0.00000000	          0.00000000	         -1.21542846	          0.00000000	
          3.36000000	          0.00000000	          0.00000000	         -0.00000000	         -0.00000000	          0.00000000	         -0.00000000	         -1.16874891	          2.09601177	          0.66581281	          0.04812591	          0.00000000	          0.03619686	          0.00000000	          0.00000000	          0.00000000	          0.00000000	         -0.65410826	          0.00000000	
          3.36500000	          0.00000000	         -0.00000000	         -0.00000000	         -0.00000000	          0.00000000	         -0.00000000	         -2.10281565	         -4.23771687	          0.47861576	          0.03310545	          0.00000000	          0.02453008	          0.00000000	          0.00000000	          0.00000000	          0.00000000	         -0.24241243	          0.00000000	
          3.37000000	         -0.00000000	         -0.00000000	         -0.00000000	         -0.00000000	          0.00000000	         -0.00000000	         -2.53550727	         -7.96426218	          0.32071720	          0.02085488	          0.00000000	          0.01510837	          0.00000000	          0.00000000	          0.00000000	          0.00000000	          0.04077201	          0.00000000	
          3.37500000	         -0.00000000	         -0.00000000	         -0.00000000	         -0.00000000	          0.00000000	         -0.00000000	         -2.61245605	         -9.72414666	          0.19409506	          0.01134945	          0.00000000	          0.00787152	          0.00000000	          0.00000000	          0.00000000	          0.00000000	          0.21914814	          0.00000000	
          3.38000000	         -0.00000000	         -0.00000000	         -0.00000000	         -0.00000000	          0.00000000	         -0.00000000	         -2.45518813	        -10.08366407	          0.09754417	          0.00435621	          0.00000000	          0.00260813	          0.00000000	          0.00000000	          0.00000000	          0.00000000	          0.31620533	          0.00000000	
          3.38500000	         -0.00000000	         -0.00000000	         -0.00000000	          0.00000000	          0.00000000	          0.00000000	         -2.16015956	         -9.51671971	          0.02791338	         -0.00047295	          0.00000000	         -0.00097345	          0.00000000	          0.00000000	          0.00000000	          0.00000000	          0.35343820	          0.00000000	
          3.39000000	         -0.00000000	         -0.00000000	         -0.00000000	          0.00000000	          0.00000000	          0.00000000	         -1.80012096	         -8.40049181	         -0.01894710	         -0.00353239	          0.00000000	         -0.00319327	          0.00000000	          0.00000000	          0.00000000	          0.00000000	          0.34936224	          0.00000000	
          3.39500000	         -0.00000000	         -0.00000000	         -0.00000000	          0.00000000	          0.00000000	          0.00000000	         -1.42686737	         -7.02029916	         -0.04749934	         -0.00521498	          0.00000000	         -0.00436424	          0.00000000	          0.00000000	          0.00000000	          0.00000000	          0.31911807	          0.00000000	
          3.40000000	         -0.00000000	         -0.00000000	         -0.00000000	          0.00000000	          0.00000000	          0.00000000	         -1.07465912	         -5.57998757	         -0.06205271	         -0.00588155	          0.00000000	         -0.00477000	          0.00000000	          0.00000000	          0.00000000	          0.00000000	          0.27448469	          0.00000000	
          3.40500000	         -0.00000000	         -0.00000000	         -0.00000000	          0.00000000	          0.00000000	          0.00000000	         -0.76380225	         -4.21503410	         -0.06647788	         -0.00584385	          0.00000000	         -0.00465296	          0.00000000	          0.00000000	          0.00000000	          0.00000000	          0.22415375	          0.00000000	
          3.41000000	         -0.00000000	         -0.00000000	          0.00000000	          0.00000000	          0.00000000	          0.00000000	         -0.50404824	         -3.00635765	         -0.06405807	         -0.00535750	          0.00000000	         -0.00420991	          0.00000000	          0.00000000	          0.00000000	          0.00000000	          0.17414964	          0.00000000	
          3.41500000	         -0.00000000	         -0.00000000	          0.00000000	          0.00000000	          0.00000000	          0.00000000	         -0.29760890	         -1.99349031	         -0.05744007	         -0.00462189	          0.00000000	         -0.00359284	          0.00000000	          0.00000000	          0.00000000	          0.00000000	          0.12830984	          0.00000000	
          3.42000000	         -0.00000000	         -0.00000000	          0.00000000	          0.00000000	          0.00000000	          0.00000000	         -0.14168609	         -1.18629714	         -0.04865326	         -0.00378463	          0.00000000	         -0.00291297	          0.00000000	         -0.00000000	          0.00000000	          0.00000000	          0.08876591	          0.00000000	
          3.42500000	         -0.00000000	         -0.00000000	          0.00000000	          0.00000000	          0.00000000	          0.00000000	         -0.03049015	         -0.57483803	         -0.03917056	         -0.00294839	          0.00000000	         -0.00224661	          0.00000000	         -0.00000000	          0.00000000	          0.00000000	          0.05638684	          0.00000000	
